# xmcd
#
# Track frame offsets: 
#        150
#        18370
#        42323
#        67649
#        81509
#        94491
#        109946
#        134039
#        151995
#
# Disc length: 2214 seconds
#
# Revision: 1
# Processed by: cddbd v1.5.2PL0 Copyright (c) Steve Scherf et al.
# Submitted via: ExactAudioCopy v1.0b4
#
DISCID=7608a409
DTITLE=The Elvin Bishop Group - Crarshaw
DYEAR=1969
DGENRE=Blues Rock
TTITLE0=The Things That I Used To Do
TTITLE1=Tulsa Shuffle
TTITLE2=Sweet Potato
TTITLE3=How Much More
TTITLE4=Dad Gum Ya Hide, Boy
TTITLE5=Honey Bee
TTITLE6=Prisoner Of Love
TTITLE7=So Fine (Live)
TTITLE8=Party Till The Cows Come Home (Live)
EXTD=
EXTT0=
EXTT1=
EXTT2=
EXTT3=
EXTT4=
EXTT5=
EXTT6=
EXTT7=
EXTT8=
PLAYORDER=
